<?xml version="1.0" encoding="utf-8"?>
<!-- Generator: Adobe Illustrator 19.2.0, SVG Export Plug-In . SVG Version: 6.00 Build 0)  -->
<svg version="1.1" id="Layer_1" xmlns="http://www.w3.org/2000/svg" xmlns:xlink="http://www.w3.org/1999/xlink" x="0px" y="0px"
	 viewBox="0 0 200 57" style="enable-background:new 0 0 200 57;" xml:space="preserve">
<metadata><?xpacket begin="﻿" id="W5M0MpCehiHzreSzNTczkc9d"?>
<x:xmpmeta xmlns:x="adobe:ns:meta/" x:xmptk="Adobe XMP Core 5.6-c111 79.158366, 2015/09/25-01:12:00        ">
   <rdf:RDF xmlns:rdf="http://www.w3.org/1999/02/22-rdf-syntax-ns#">
      <rdf:Description rdf:about=""/>
   </rdf:RDF>
</x:xmpmeta>
                                                                                                    
                                                                                                    
                                                                                                    
                                                                                                    
                                                                                                    
                                                                                                    
                                                                                                    
                                                                                                    
                                                                                                    
                                                                                                    
                                                                                                    
                                                                                                    
                                                                                                    
                                                                                                    
                                                                                                    
                                                                                                    
                                                                                                    
                                                                                                    
                                                                                                    
                                                                                                    
                           
<?xpacket end="w"?></metadata>
<style type="text/css">
	.st0{fill:#58595B;}
	.st1{fill:none;stroke:#0097A7;stroke-width:0.28;stroke-miterlimit:10;}
</style>
<g>
	<g>
		<path class="st0" d="M55.3,38.9c-1.9,1.6-3.3,2.5-4.4,2.5c-1.1,0-1.8-0.5-2.2-1.6c-0.1-0.4-0.2-0.7-0.2-1.1c0-0.9,0.1-1.7,0.4-2.6
			c0.3-0.8,0.6-1.6,0.8-2.3l1.8-4.6c0.7-1.9,1.1-3.2,1.3-4c0.1-0.7,0.1-1.3-0.1-1.5c-0.2-0.3-0.4-0.5-0.7-0.7s-0.5-0.4-0.7-0.5
			c-0.2-0.2-0.3-0.4-0.3-0.6s0.1-0.5,0.3-0.7s0.5-0.4,0.8-0.6c0.7-0.3,1.3-0.5,2-0.5s1.2,0.1,1.7,0.2c0.4,0.1,0.7,0.3,1,0.5
			c0.5,0.4,0.8,1,0.8,1.6s-0.1,1.3-0.3,2.1s-0.5,1.6-0.8,2.5s-0.7,1.8-1.1,2.8l-1.1,2.8c-0.9,2.3-1.4,4-1.6,5.1c1.3-0.4,3-2,5.1-4.7
			c2.3-2.9,4.3-6.3,6.1-10.1c0.2-0.5,0.5-0.8,0.8-0.9c0.5-0.2,1.1-0.3,1.9-0.3c1.2,0,1.8,0.4,1.8,1.1c0,0.4-0.1,0.9-0.3,1.4
			c-0.3,0.5-0.5,0.9-0.6,1.3l-0.8,1.6c-1.6,3.2-2.4,5.8-2.4,7.8c0,1.4,0.4,2.4,1.1,2.9c0.2,0.2,0.6,0.2,1,0.2s1-0.2,1.6-0.5
			s1.2-0.8,1.8-1.3c0.6-0.6,1.1-1.2,1.6-1.9s0.9-1.5,1.3-2.4c0.7-1.8,1.1-3.4,1.1-4.7c0-2.3-0.4-4.1-1.3-5.2
			c-0.3-0.4-0.2-0.8,0.3-1.2c0.5-0.5,1.3-0.8,2.4-0.8c1.3,0,2.2,0.7,2.7,2.2c0.2,0.6,0.3,1.4,0.3,2.5s-0.2,2.4-0.6,3.7
			c-0.4,1.4-0.9,2.7-1.6,3.9c-0.7,1.3-1.4,2.4-2.3,3.5s-1.8,2-2.8,2.8c-2.1,1.7-4,2.6-5.7,2.6c-3,0-4.5-2-4.5-5.9
			c0-0.9,0.1-1.8,0.2-2.6C58.8,35.3,57.1,37.3,55.3,38.9z"/>
		<path class="st0" d="M94.5,24c-0.7,0-2.1,1.1-4,3.4l-1.7,2.1l-3.3,4.3c-0.8,1.5-1.4,2.7-1.9,3.7l-1,2.4c-0.3,0.6-0.5,1-0.7,1.2
			s-0.5,0.4-0.9,0.4s-0.7-0.1-1-0.2s-0.6-0.3-0.9-0.5c-0.5-0.4-0.8-0.9-0.8-1.4c0-0.2,0.1-0.6,0.4-1.2l0.8-1.7
			c2.5-5.2,4.8-11.9,6.9-19.9c0.8-3,1.3-5.6,1.7-8c0.1-1.1,0.7-1.7,1.7-1.7c0.6,0,1.1,0.1,1.5,0.4c0.8,0.6,1.2,1.2,1.1,1.9
			c0,0.7-0.1,1.4-0.3,2.2s-0.4,1.7-0.6,2.7c-0.3,1-0.6,2-0.9,3.1c-0.9,2.7-1.6,4.7-2,5.9c-1.3,3.7-2.2,5.8-2.5,6.4
			c0.2-0.2,0.5-0.6,0.8-1c2.5-3.2,4-5.2,4.6-5.8s1.1-1.1,1.5-1.5c0.9-0.7,1.9-1.1,3.3-1.1c1.1,0,1.9,0.4,2.6,1.1
			c0.6,0.7,0.9,1.4,0.9,2.3c0,0.8-0.1,1.6-0.3,2.2c-0.2,0.7-0.4,1.3-0.7,2c-0.3,0.7-0.6,1.4-0.9,2.1l-1,2.1c-1,2.2-1.4,3.8-1.4,4.8
			c0,0.7,0.3,1.1,0.9,1.1s1.1-0.1,1.6-0.4c0.5-0.2,0.8-0.4,0.9-0.4c0.3,0,0.4,0.1,0.4,0.4c0,1.2-0.6,2.2-1.8,3
			c-0.8,0.6-1.6,0.8-2.3,0.8c-0.7,0-1.3-0.1-1.7-0.2c-0.5-0.1-0.9-0.4-1.2-0.7c-0.8-0.7-1.2-1.8-1.2-3.2c0-1.5,0.5-3.5,1.5-5.8
			l2.2-4.7c0.4-0.9,0.6-1.6,0.6-2.1S95.1,24,94.5,24z"/>
		<path class="st0" d="M109.8,37.5c0.4,0,0.5,0.2,0.5,0.7c0,0.6-0.3,1.2-0.8,1.9c-0.8,1-1.9,1.4-3.3,1.4c-1.6,0-2.7-0.6-3.2-1.9
			c-0.2-0.4-0.3-1-0.3-1.6s0.1-1.3,0.3-2.1c0.2-0.8,0.5-1.6,0.8-2.5s0.7-1.7,1.1-2.6l1.1-2.6c0.8-1.9,1.2-3.2,1.2-3.8
			s-0.1-1-0.2-1.2s-0.3-0.3-0.4-0.5l-0.4-0.3c-0.1-0.1-0.2-0.3-0.2-0.5s0.1-0.5,0.3-0.7c0.2-0.2,0.4-0.4,0.7-0.6
			c0.6-0.3,1.3-0.5,2.1-0.5c2,0,3,0.5,3,1.6c0,1.2-0.3,2.6-1,4.2c-0.6,1.6-1.2,2.8-1.6,3.8l-1.2,2.8c-0.9,2.1-1.3,3.6-1.3,4.5
			c0,0.6,0.3,0.9,0.9,0.9s1-0.1,1.3-0.2C109.5,37.5,109.7,37.5,109.8,37.5z M114,15.4c-0.3,0.3-0.6,0.6-1,0.8
			c-0.4,0.2-0.8,0.3-1.2,0.4c-0.4,0-0.8,0-1.2-0.2c-0.4-0.2-0.7-0.4-1-0.8c-0.6-0.7-0.9-1.4-0.9-2.1s0.1-1.2,0.3-1.6
			s0.5-0.6,0.8-0.8c0.7-0.4,1.3-0.6,1.8-0.6c0.6,0,1,0,1.3,0.1s0.6,0.2,0.9,0.4c0.7,0.4,1,1,1,1.6s-0.1,1.2-0.3,1.6
			C114.5,14.7,114.3,15.1,114,15.4z"/>
		<path class="st0" d="M114,37.7c0-0.4,0.1-0.8,0.3-1.2c0.2-0.4,0.4-0.7,0.7-0.9c0.6-0.5,1.2-0.8,1.8-0.8c0.5,0,0.8,0.3,0.8,0.8
			c0,1.4,0.5,2.4,1.4,3c0.3,0.2,0.7,0.3,1.1,0.3s0.7,0,0.9-0.1s0.5-0.2,0.7-0.4c0.5-0.4,0.7-0.9,0.7-1.4s-0.1-1-0.4-1.5
			c-0.2-0.5-0.6-0.9-0.9-1.4l-1.2-1.6c-1.6-2.2-2.4-4.2-2.4-6c0-1.5,0.6-2.9,1.9-4.1c1.5-1.4,3.3-2.1,5.6-2.1c2,0,3.6,0.5,4.7,1.5
			c0.9,0.8,1.4,1.7,1.4,2.8s-0.4,1.9-1.2,2.6c-0.7,0.6-1.5,0.8-2.2,0.6c-0.3-0.1-0.6-0.2-0.8-0.5s-0.2-0.6-0.1-0.9s0.2-0.7,0.2-1.1
			s-0.1-0.7-0.2-1s-0.3-0.6-0.6-0.8c-0.5-0.4-1-0.7-1.5-0.7s-1,0.1-1.3,0.2s-0.6,0.3-0.9,0.5c-0.5,0.5-0.8,1.1-0.8,1.8
			s0.1,1.3,0.4,1.8c0.2,0.5,0.5,1,0.9,1.5s0.8,1,1.2,1.6c0.4,0.5,0.8,1.1,1.2,1.7c0.9,1.4,1.3,2.6,1.3,3.6s-0.2,1.9-0.7,2.6
			c-0.4,0.7-1,1.3-1.7,1.8c-1.5,1.1-3.1,1.7-5,1.7c-1.8,0-3.1-0.4-4.2-1.3C114.4,39.5,114,38.6,114,37.7z"/>
		<path class="st0" d="M146.1,41.4c-3.1,0-5.5-2.9-7.4-8.8c-0.7,1.3-1.3,2.5-1.8,3.6l-1.2,2.8c-0.4,0.8-0.7,1.4-1,1.8
			s-0.6,0.6-1,0.6s-0.7-0.1-1-0.2s-0.6-0.3-0.8-0.5c-0.5-0.4-0.7-0.9-0.7-1.4c0-0.2,0.1-0.6,0.4-1.2l0.8-1.7
			c2.5-5.2,4.8-11.9,6.9-19.9c0.8-3,1.3-5.6,1.7-8c0.1-1.1,0.7-1.7,1.7-1.7c0.6,0,1,0.1,1.4,0.4c0.7,0.6,1.1,1.2,1.1,1.9
			c0,0.7-0.1,1.4-0.3,2.3s-0.4,1.8-0.6,2.8c-0.3,1-0.6,2-0.9,3.1c-0.9,2.8-1.5,4.9-2,6.1l-1.9,5.3c-0.2,0.6-0.4,1.1-0.6,1.4
			c3.2-1.2,5.5-2.7,7.1-4.2c1-1,1.4-1.8,1.4-2.7c0-0.4-0.1-0.7-0.4-0.9c-0.3-0.2-0.5-0.3-0.6-0.4s-0.1-0.3,0-0.6s0.3-0.5,0.8-0.8
			c0.4-0.2,0.9-0.4,1.5-0.4s1.1,0.1,1.5,0.2s0.8,0.3,1,0.5c0.7,0.5,1,1.1,1,2s-0.2,1.7-0.6,2.4c-0.4,0.7-0.9,1.4-1.7,2.1
			c-1.5,1.3-4,2.6-7.4,3.8c0.4,1.8,1.2,3.4,2.3,4.8c1.1,1.3,2.1,2,3,2c0.5,0,0.9-0.1,1.2-0.2l0.7-0.4c0.1-0.1,0.3-0.1,0.4-0.1
			c0.3,0,0.5,0.2,0.5,0.6s-0.1,0.7-0.2,0.9c-0.1,0.3-0.3,0.5-0.5,0.8s-0.5,0.6-0.9,0.9C148.3,41.1,147.2,41.4,146.1,41.4z"/>
		<path class="st0" d="M156.6,40.4c-0.3-0.4-0.6-0.8-0.8-1.4s-0.3-1.2-0.3-1.9s0.2-1.7,0.5-2.9s0.8-2.6,1.3-4.2l1.7-5.1
			c2.4-7.1,3.8-12.5,4.2-16.4c0.1-1.1,0.7-1.7,1.7-1.7c0.6,0,1.1,0.1,1.5,0.4c0.8,0.6,1.2,1.3,1.1,2c-0.1,0.7-0.2,1.6-0.4,2.7
			s-0.5,2.2-0.9,3.4s-0.8,2.6-1.3,3.9l-2.8,8.3c-1.6,4.7-2.4,7.7-2.4,9.1c0,0.7,0.3,1.1,0.9,1.1c0.6,0,1.1-0.1,1.6-0.4
			c0.5-0.2,0.8-0.4,0.9-0.4c0.3,0,0.4,0.1,0.4,0.4c0,1.2-0.6,2.2-1.9,3c-0.8,0.6-1.6,0.8-2.3,0.8s-1.2-0.1-1.7-0.2
			C157.4,41.1,157,40.8,156.6,40.4z"/>
		<path class="st0" d="M167.2,39.3c-0.2-0.4-0.2-1-0.2-1.5c0-0.6,0.1-1.2,0.3-1.9s0.5-1.5,0.8-2.2c0.3-0.8,0.7-1.6,1-2.4l1.1-2.4
			c1.4-3.1,1.9-5,1.6-5.6c-0.2-0.3-0.5-0.5-0.9-0.8c-0.2-0.1-0.2-0.3-0.2-0.5s0.1-0.5,0.3-0.7s0.5-0.4,0.8-0.6
			c0.7-0.3,1.3-0.5,2-0.5s1.2,0.1,1.5,0.2s0.6,0.3,0.8,0.5c0.4,0.4,0.7,0.9,0.7,1.5s-0.1,1.2-0.3,1.8c-0.2,0.7-0.4,1.4-0.7,2.2
			s-0.6,1.6-0.9,2.4c-0.9,2.2-1.6,3.7-1.9,4.4l-0.8,1.6c-0.4,0.9-0.6,1.6-0.6,2s0.1,0.6,0.2,0.8c0.1,0.2,0.3,0.2,0.7,0.2
			s0.7-0.1,1.1-0.4c0.4-0.2,0.8-0.6,1.3-1c0.4-0.4,0.9-0.9,1.4-1.4s1-1.1,1.4-1.7c1.2-1.5,2.1-2.8,2.7-3.9c2.9-5.4,4.5-8.2,4.7-8.5
			c0.4-0.6,0.9-0.9,1.4-0.9s0.9,0.1,1.2,0.2s0.6,0.2,0.9,0.4c0.5,0.4,0.7,0.8,0.5,1.3s-0.5,1.2-0.8,2c-2.6,7.5-4.3,12.1-5,14
			c-0.8,1.8-1.4,3.3-2,4.5s-1.2,2.3-2,3.4s-1.6,2.2-2.5,3.1c-2,2.1-3.8,3.3-5.6,3.4c-0.7,0.1-1.2,0-1.6-0.3c-0.7-0.4-1-0.8-1-1.2
			s0.3-0.6,0.9-0.8c0.6-0.2,1.3-0.4,1.9-0.9c0.7-0.4,1.3-0.9,1.9-1.5c1.8-1.7,3.2-3.6,4.2-5.6c0.8-1.8,1.5-3.4,2-5l1.6-4.8
			c-0.4,0.5-0.8,1-1.3,1.7l-1.5,2c-1.3,1.6-2.3,2.8-3.2,3.4c-1.6,1.3-3,1.9-4.3,1.9C168.9,41.5,167.8,40.7,167.2,39.3z"/>
	</g>
	<g>
		<g>
			<path class="st1" d="M18.5,8.6c0.9-1.6,2.2-2.6,4-2.5c1.6,0.1,2.9,0.9,3.8,2.4c2.8,1,4.5,3.2,5.4,6.1c-0.7-5.8-3.2-10-9.1-9.9
				c-4.5,0.1-7.1,2.6-8.4,6.5C15.2,10.1,16.7,9.2,18.5,8.6z"/>
			<path class="st1" d="M26.2,8.5c-0.9-1.5-2.1-2.3-3.8-2.4c-1.8-0.1-3.1,0.9-4,2.5c0.8-0.2,1.7-0.4,2.7-0.5
				C23.1,7.9,24.8,8,26.2,8.5z"/>
			<path class="st1" d="M27.4,48.1l0.3-0.1c4.5-10.1,9.3-24.2,4.5-30.8C34.2,29,27.4,48.1,27.4,48.1z"/>
			<path class="st1" d="M17.6,48.2c-0.1,0.2-0.9-2.5-2-6.1c-2-5-4.4-12.4-4.7-19c-1.3,10.3,6.3,25,6.3,25"/>
			<path class="st1" d="M32.2,17.2c-0.2-0.9-0.4-1.8-0.6-2.6c0.1,0.6,0.1,1.3,0.2,2C31.9,16.8,32.1,17,32.2,17.2z"/>
			<path class="st1" d="M13.2,16.6c0.1-2,0.4-3.8,1-5.4c-2.8,2.8-3.5,7.1-3.3,11.9c0.3-2,0.9-3.9,1.9-5.4C12.9,17.3,13,17,13.2,16.6
				z"/>
			<path class="st1" d="M26.2,8.5c0.9,1.4,1.4,3.3,1.8,5.6c1.6,0.5,2.8,1.4,3.8,2.5c0-0.7-0.1-1.3-0.2-2C30.7,11.7,29,9.5,26.2,8.5z
				"/>
			<path class="st1" d="M17.2,12.1c0.3-1.4,0.7-2.6,1.3-3.5c-1.8,0.5-3.2,1.4-4.3,2.5c-0.5,1.6-0.9,3.5-1,5.4
				C13.9,14.6,15.2,13,17.2,12.1z"/>
			<path class="st1" d="M22.1,11.6c0.1-0.7,0.2-1.1,0.4-1.1c0.2,0,0.3,0.4,0.4,1.2c1.4,0.3,2.5,1,3.4,2c0.6,0.1,1.2,0.3,1.7,0.4
				c-0.3-2.3-0.9-4.2-1.8-5.6c-1.4-0.5-3.1-0.7-5.1-0.4c-1,0.1-1.9,0.3-2.7,0.5c-0.5,1-1,2.1-1.3,3.5c0.9-0.4,1.9-0.6,3.1-0.7
				C20.9,11.4,21.5,11.5,22.1,11.6z"/>
			<path class="st1" d="M22.4,10.5c-0.2,0-0.3,0.4-0.4,1.1c0.3,0,0.5,0.1,0.8,0.2C22.7,10.9,22.6,10.5,22.4,10.5z"/>
			<path class="st1" d="M27.4,48.1c0,0,6.8-19.1,4.8-30.9c-0.1-0.2-0.3-0.4-0.5-0.6c0.3,6.9-1.5,15.5-3.3,22
				c-0.9,5.4-2.1,9.5-2.1,9.5"/>
			<path class="st1" d="M12.8,17.6c-1.1,1.5-1.7,3.4-1.9,5.4c0.4,6.6,2.8,14,4.7,19C13.5,35.3,10.9,24.5,12.8,17.6z"/>
			<path class="st1" d="M28.5,38.6c1.7-6.5,3.6-15.1,3.3-22c-0.9-1.1-2.2-1.9-3.8-2.5c0.1,0.9,0.2,1.9,0.3,2.9
				C30.5,22.8,29.7,31.8,28.5,38.6z"/>
			<path class="st1" d="M28.3,17.1c-0.1-1-0.2-2-0.3-2.9c-0.5-0.2-1.1-0.3-1.7-0.4C27.1,14.6,27.8,15.7,28.3,17.1z"/>
			<path class="st1" d="M18.2,48.1c0,0-1.2-2.4-2.6-6c1.1,3.6,1.9,6.2,1.9,6.2"/>
			<path class="st1" d="M13.2,16.6c-0.1,0.3-0.2,0.7-0.3,1c0.1-0.1,0.2-0.3,0.3-0.4C13.1,17,13.1,16.8,13.2,16.6z"/>
			<path class="st1" d="M16.8,14.5c0.1-0.8,0.2-1.6,0.4-2.4c-2,0.8-3.2,2.4-4,4.5c0,0.2,0,0.4,0,0.6C14,16.1,15.2,15.2,16.8,14.5z"
				/>
			<path class="st1" d="M22.9,11.7c0.1,0.5,0.1,1,0.2,1.7c0.2,0,0.4,0,0.7,0c0.9,0,1.8,0.1,2.6,0.3C25.3,12.7,24.2,12.1,22.9,11.7z"
				/>
			<path class="st1" d="M21.9,13.4c0-0.8,0.1-1.4,0.2-1.9c-0.6-0.1-1.1-0.1-1.8-0.1c-1.2,0.1-2.2,0.3-3.1,0.7
				c-0.2,0.7-0.3,1.5-0.4,2.4C18.2,13.9,19.9,13.5,21.9,13.4z"/>
			<path class="st1" d="M22.1,11.6c-0.1,0.5-0.1,1.1-0.2,1.9c0.4,0,0.7,0,1.1,0c0-0.7-0.1-1.2-0.2-1.7
				C22.6,11.7,22.3,11.6,22.1,11.6z"/>
			<path class="st1" d="M19.2,48.9c0,0-6.7-18.8-6.1-31.6c-0.1,0.1-0.2,0.3-0.3,0.4c-1.9,6.8,0.7,17.7,2.8,24.4
				c1.4,3.6,2.8,6.6,2.8,6.6"/>
			<path class="st1" d="M26.3,48.7c0,0,1.3-4.7,2.2-10.1c-1.5,5.5-2.9,9.5-2.9,9.5"/>
			<path class="st1" d="M19.6,48.1c0,0-4.4-21.3-2.8-33.6c-1.5,0.7-2.7,1.6-3.6,2.7c-0.7,12.8,5.7,30.9,5.7,30.9"/>
			<path class="st1" d="M25.3,49c0,0,1.8-4.9,3.3-10.4c1.2-6.8,2-15.8-0.2-21.5c0.9,12.4-3.1,31-3.1,31"/>
			<path class="st1" d="M25,49c0,0,4.1-19.6,3.3-32c-0.5-1.3-1.2-2.5-2.1-3.4c-0.8-0.1-1.6-0.2-2.6-0.3c-0.2,0-0.4,0-0.7,0l0,0
				c0.2,0,0.4,0,0.7,0c8,1.1,0.6,34.6,0.6,34.6"/>
			<path class="st1" d="M21.8,48.1c0,0-5-29.5,0.1-34.1c0-0.2,0-0.4,0-0.6c-2,0.1-3.7,0.5-5.1,1.1c-1.6,12.2,3,34.5,3,34.5"/>
			<path class="st1" d="M21.9,13.4c0,0.2,0,0.4,0,0.6c0.3-0.3,0.7-0.5,1.2-0.6l0,0C22.6,13.4,22.3,13.4,21.9,13.4z"/>
			<path class="st1" d="M22.5,49.4c0,0-1.1-26-0.6-35.4C16.8,18.6,22,49.3,22,49.3"/>
			<path class="st1" d="M24.1,49.2c0,0,7.6-34.7-0.4-35.8c-0.2,0-0.5,0-0.7,0c0.6,8.8,0,34.6,0,34.6"/>
			<path class="st1" d="M23,49.3c0,0,0.7-27,0.1-35.9c-0.4,0.1-0.8,0.3-1.2,0.6c-0.5,9.3,0.6,35.3,0.6,35.3"/>
		</g>
		<path class="st1" d="M17.2,48c0.9,0.5,2.8,1.4,5.5,1.3c2.5-0.1,4.3-0.8,5.2-1.3"/>
	</g>
</g>
</svg>
