<?xml version="1.0" encoding="utf-8"?>
<!-- Generator: Adobe Illustrator 19.2.0, SVG Export Plug-In . SVG Version: 6.00 Build 0)  -->
<svg version="1.1" id="Layer_1" xmlns="http://www.w3.org/2000/svg" xmlns:xlink="http://www.w3.org/1999/xlink" x="0px" y="0px"
	 viewBox="0 0 200 65.2" style="enable-background:new 0 0 200 65.2;" xml:space="preserve">
<metadata><?xpacket begin="﻿" id="W5M0MpCehiHzreSzNTczkc9d"?>
<x:xmpmeta xmlns:x="adobe:ns:meta/" x:xmptk="Adobe XMP Core 5.6-c111 79.158366, 2015/09/25-01:12:00        ">
   <rdf:RDF xmlns:rdf="http://www.w3.org/1999/02/22-rdf-syntax-ns#">
      <rdf:Description rdf:about=""/>
   </rdf:RDF>
</x:xmpmeta>
                                                                                                    
                                                                                                    
                                                                                                    
                                                                                                    
                                                                                                    
                                                                                                    
                                                                                                    
                                                                                                    
                                                                                                    
                                                                                                    
                                                                                                    
                                                                                                    
                                                                                                    
                                                                                                    
                                                                                                    
                                                                                                    
                                                                                                    
                                                                                                    
                                                                                                    
                                                                                                    
                           
<?xpacket end="w"?></metadata>
<style type="text/css">
	.st0{fill:#F1F2F2;}
	.st1{fill:none;stroke:#F1F2F2;stroke-width:0.2797;stroke-miterlimit:10;}
	.st2{fill:none;stroke:#F1F2F2;stroke-width:0.2797;stroke-linecap:round;stroke-miterlimit:10;}
</style>
<g>
	<g>
		<path class="st0" d="M55.3,43c-1.9,1.6-3.3,2.5-4.4,2.5c-1.1,0-1.8-0.5-2.2-1.6c-0.1-0.4-0.2-0.7-0.2-1.1c0-0.9,0.1-1.7,0.4-2.6
			c0.3-0.8,0.6-1.6,0.8-2.3l1.8-4.6c0.7-1.9,1.1-3.2,1.3-4c0.1-0.7,0.1-1.3-0.1-1.5c-0.2-0.3-0.4-0.5-0.7-0.7s-0.5-0.4-0.7-0.5
			C51.1,26.4,51,26.2,51,26s0.1-0.5,0.3-0.7s0.5-0.4,0.8-0.6c0.7-0.3,1.3-0.5,2-0.5s1.2,0.1,1.7,0.2c0.4,0.1,0.7,0.3,1,0.5
			c0.5,0.4,0.8,1,0.8,1.6s-0.1,1.3-0.3,2.1c-0.2,0.8-0.5,1.6-0.8,2.5c-0.3,0.9-0.7,1.8-1.1,2.8l-1.1,2.8c-0.9,2.3-1.4,4-1.6,5.1
			c1.3-0.4,3-2,5.1-4.7c2.3-2.9,4.3-6.3,6.1-10.1c0.2-0.5,0.5-0.8,0.8-0.9c0.5-0.2,1.1-0.3,1.9-0.3c1.2,0,1.8,0.4,1.8,1.1
			c0,0.4-0.1,0.9-0.3,1.4c-0.3,0.5-0.5,0.9-0.6,1.3l-0.8,1.6c-1.6,3.2-2.4,5.8-2.4,7.8c0,1.4,0.4,2.4,1.1,2.9c0.2,0.2,0.6,0.2,1,0.2
			s1-0.2,1.6-0.5s1.2-0.8,1.8-1.3c0.6-0.6,1.1-1.2,1.6-1.9s0.9-1.5,1.3-2.4c0.7-1.8,1.1-3.4,1.1-4.7c0-2.3-0.4-4.1-1.3-5.2
			c-0.3-0.4-0.2-0.8,0.3-1.2c0.5-0.5,1.3-0.8,2.4-0.8c1.3,0,2.2,0.7,2.7,2.2c0.2,0.6,0.3,1.4,0.3,2.5s-0.2,2.4-0.6,3.7
			c-0.4,1.4-0.9,2.7-1.6,3.9c-0.7,1.3-1.4,2.4-2.3,3.5s-1.8,2-2.8,2.8c-2.1,1.7-4,2.6-5.7,2.6c-3,0-4.5-2-4.5-5.9
			c0-0.9,0.1-1.8,0.2-2.6C58.8,39.4,57.1,41.4,55.3,43z"/>
		<path class="st0" d="M94.5,28.1c-0.7,0-2.1,1.1-4,3.4l-1.7,2.1l-3.3,4.3c-0.8,1.5-1.4,2.7-1.9,3.7l-1,2.4c-0.3,0.6-0.5,1-0.7,1.2
			s-0.5,0.4-0.9,0.4s-0.7-0.1-1-0.2c-0.3-0.1-0.6-0.3-0.9-0.5c-0.5-0.4-0.8-0.9-0.8-1.4c0-0.2,0.1-0.6,0.4-1.2l0.8-1.7
			c2.5-5.2,4.8-11.9,6.9-19.9c0.8-3,1.3-5.6,1.7-8c0.1-1.1,0.7-1.7,1.7-1.7c0.6,0,1.1,0.1,1.5,0.4c0.8,0.6,1.2,1.2,1.1,1.9
			c0,0.7-0.1,1.4-0.3,2.2c-0.2,0.8-0.4,1.7-0.6,2.7c-0.3,1-0.6,2-0.9,3.1c-0.9,2.7-1.6,4.7-2,5.9c-1.3,3.7-2.2,5.8-2.5,6.4
			c0.2-0.2,0.5-0.6,0.8-1c2.5-3.2,4-5.2,4.6-5.8s1.1-1.1,1.5-1.5c0.9-0.7,1.9-1.1,3.3-1.1c1.1,0,1.9,0.4,2.6,1.1
			c0.6,0.7,0.9,1.4,0.9,2.3c0,0.8-0.1,1.6-0.3,2.2c-0.2,0.7-0.4,1.3-0.7,2c-0.3,0.7-0.6,1.4-0.9,2.1l-1,2.1c-1,2.2-1.4,3.8-1.4,4.8
			c0,0.7,0.3,1.1,0.9,1.1s1.1-0.1,1.6-0.4c0.5-0.2,0.8-0.4,0.9-0.4c0.3,0,0.4,0.1,0.4,0.4c0,1.2-0.6,2.2-1.8,3
			c-0.8,0.6-1.6,0.8-2.3,0.8c-0.7,0-1.3-0.1-1.7-0.2c-0.5-0.1-0.9-0.4-1.2-0.7c-0.8-0.7-1.2-1.8-1.2-3.2c0-1.5,0.5-3.5,1.5-5.8
			l2.2-4.7c0.4-0.9,0.6-1.6,0.6-2.1S95.1,28.1,94.5,28.1z"/>
		<path class="st0" d="M109.8,41.6c0.4,0,0.5,0.2,0.5,0.7c0,0.6-0.3,1.2-0.8,1.9c-0.8,1-1.9,1.4-3.3,1.4c-1.6,0-2.7-0.6-3.2-1.9
			c-0.2-0.4-0.3-1-0.3-1.6s0.1-1.3,0.3-2.1s0.5-1.6,0.8-2.5s0.7-1.7,1.1-2.6l1.1-2.6c0.8-1.9,1.2-3.2,1.2-3.8s-0.1-1-0.2-1.2
			s-0.3-0.3-0.4-0.5l-0.4-0.3c-0.1-0.1-0.2-0.3-0.2-0.5s0.1-0.5,0.3-0.7s0.4-0.4,0.7-0.6c0.6-0.3,1.3-0.5,2.1-0.5c2,0,3,0.5,3,1.6
			c0,1.2-0.3,2.6-1,4.2c-0.6,1.6-1.2,2.8-1.6,3.8l-1.2,2.8c-0.9,2.1-1.3,3.6-1.3,4.5c0,0.6,0.3,0.9,0.9,0.9s1-0.1,1.3-0.2
			C109.5,41.6,109.7,41.6,109.8,41.6z M114,19.5c-0.3,0.3-0.6,0.6-1,0.8c-0.4,0.2-0.8,0.3-1.2,0.4c-0.4,0-0.8,0-1.2-0.2
			c-0.4-0.2-0.7-0.4-1-0.8c-0.6-0.7-0.9-1.4-0.9-2.1s0.1-1.2,0.3-1.6c0.2-0.4,0.5-0.6,0.8-0.8c0.7-0.4,1.3-0.6,1.8-0.6
			c0.6,0,1,0,1.3,0.1s0.6,0.2,0.9,0.4c0.7,0.4,1,1,1,1.6c0,0.6-0.1,1.2-0.3,1.6C114.5,18.8,114.3,19.2,114,19.5z"/>
		<path class="st0" d="M114,41.8c0-0.4,0.1-0.8,0.3-1.2c0.2-0.4,0.4-0.7,0.7-0.9c0.6-0.5,1.2-0.8,1.8-0.8c0.5,0,0.8,0.3,0.8,0.8
			c0,1.4,0.5,2.4,1.4,3c0.3,0.2,0.7,0.3,1.1,0.3s0.7,0,0.9-0.1s0.5-0.2,0.7-0.4c0.5-0.4,0.7-0.9,0.7-1.4s-0.1-1-0.4-1.5
			c-0.2-0.5-0.6-0.9-0.9-1.4l-1.2-1.6c-1.6-2.2-2.4-4.2-2.4-6c0-1.5,0.6-2.9,1.9-4.1c1.5-1.4,3.3-2.1,5.6-2.1c2,0,3.6,0.5,4.7,1.5
			c0.9,0.8,1.4,1.7,1.4,2.8c0,1.1-0.4,1.9-1.2,2.6c-0.7,0.6-1.5,0.8-2.2,0.6c-0.3-0.1-0.6-0.2-0.8-0.5c-0.2-0.3-0.2-0.6-0.1-0.9
			s0.2-0.7,0.2-1.1s-0.1-0.7-0.2-1s-0.3-0.6-0.6-0.8c-0.5-0.4-1-0.7-1.5-0.7s-1,0.1-1.3,0.2s-0.6,0.3-0.9,0.5
			c-0.5,0.5-0.8,1.1-0.8,1.8c0,0.7,0.1,1.3,0.4,1.8c0.2,0.5,0.5,1,0.9,1.5s0.8,1,1.2,1.6c0.4,0.5,0.8,1.1,1.2,1.7
			c0.9,1.4,1.3,2.6,1.3,3.6s-0.2,1.9-0.7,2.6c-0.4,0.7-1,1.3-1.7,1.8c-1.5,1.1-3.1,1.7-5,1.7c-1.8,0-3.1-0.4-4.2-1.3
			C114.4,43.6,114,42.7,114,41.8z"/>
		<path class="st0" d="M146.1,45.5c-3.1,0-5.5-2.9-7.4-8.8c-0.7,1.3-1.3,2.5-1.8,3.6l-1.2,2.8c-0.4,0.8-0.7,1.4-1,1.8
			c-0.3,0.4-0.6,0.6-1,0.6s-0.7-0.1-1-0.2c-0.3-0.1-0.6-0.3-0.8-0.5c-0.5-0.4-0.7-0.9-0.7-1.4c0-0.2,0.1-0.6,0.4-1.2l0.8-1.7
			c2.5-5.2,4.8-11.9,6.9-19.9c0.8-3,1.3-5.6,1.7-8c0.1-1.1,0.7-1.7,1.7-1.7c0.6,0,1,0.1,1.4,0.4c0.7,0.6,1.1,1.2,1.1,1.9
			s-0.1,1.4-0.3,2.3c-0.2,0.9-0.4,1.8-0.6,2.8c-0.3,1-0.6,2-0.9,3.1c-0.9,2.8-1.5,4.9-2,6.1l-1.9,5.3c-0.2,0.6-0.4,1.1-0.6,1.4
			c3.2-1.2,5.5-2.7,7.1-4.2c1-1,1.4-1.8,1.4-2.7c0-0.4-0.1-0.7-0.4-0.9c-0.3-0.2-0.5-0.3-0.6-0.4s-0.1-0.3,0-0.6s0.3-0.5,0.8-0.8
			c0.4-0.2,0.9-0.4,1.5-0.4s1.1,0.1,1.5,0.2s0.8,0.3,1,0.5c0.7,0.5,1,1.1,1,2s-0.2,1.7-0.6,2.4c-0.4,0.7-0.9,1.4-1.7,2.1
			c-1.5,1.3-4,2.6-7.4,3.8c0.4,1.8,1.2,3.4,2.3,4.8c1.1,1.3,2.1,2,3,2c0.5,0,0.9-0.1,1.2-0.2l0.7-0.4c0.1-0.1,0.3-0.1,0.4-0.1
			c0.3,0,0.5,0.2,0.5,0.6c0,0.4-0.1,0.7-0.2,0.9c-0.1,0.3-0.3,0.5-0.5,0.8s-0.5,0.6-0.9,0.9C148.3,45.2,147.2,45.5,146.1,45.5z"/>
		<path class="st0" d="M156.6,44.5c-0.3-0.4-0.6-0.8-0.8-1.4c-0.2-0.6-0.3-1.2-0.3-1.9s0.2-1.7,0.5-2.9s0.8-2.6,1.3-4.2L159,29
			c2.4-7.1,3.8-12.5,4.2-16.4c0.1-1.1,0.7-1.7,1.7-1.7c0.6,0,1.1,0.1,1.5,0.4c0.8,0.6,1.2,1.3,1.1,2s-0.2,1.6-0.4,2.7
			c-0.2,1.1-0.5,2.2-0.9,3.4c-0.4,1.2-0.8,2.6-1.3,3.9l-2.8,8.3c-1.6,4.7-2.4,7.7-2.4,9.1c0,0.7,0.3,1.1,0.9,1.1
			c0.6,0,1.1-0.1,1.6-0.4c0.5-0.2,0.8-0.4,0.9-0.4c0.3,0,0.4,0.1,0.4,0.4c0,1.2-0.6,2.2-1.9,3c-0.8,0.6-1.6,0.8-2.3,0.8
			s-1.2-0.1-1.7-0.2C157.4,45.2,157,44.9,156.6,44.5z"/>
		<path class="st0" d="M167.2,43.4c-0.2-0.4-0.2-1-0.2-1.5c0-0.6,0.1-1.2,0.3-1.9s0.5-1.5,0.8-2.2c0.3-0.8,0.7-1.6,1-2.4l1.1-2.4
			c1.4-3.1,1.9-5,1.6-5.6c-0.2-0.3-0.5-0.5-0.9-0.8c-0.2-0.1-0.2-0.3-0.2-0.5s0.1-0.5,0.3-0.7s0.5-0.4,0.8-0.6
			c0.7-0.3,1.3-0.5,2-0.5s1.2,0.1,1.5,0.2s0.6,0.3,0.8,0.5c0.4,0.4,0.7,0.9,0.7,1.5s-0.1,1.2-0.3,1.8c-0.2,0.7-0.4,1.4-0.7,2.2
			c-0.3,0.8-0.6,1.6-0.9,2.4c-0.9,2.2-1.6,3.7-1.9,4.4l-0.8,1.6c-0.4,0.9-0.6,1.6-0.6,2s0.1,0.6,0.2,0.8c0.1,0.2,0.3,0.2,0.7,0.2
			s0.7-0.1,1.1-0.4c0.4-0.2,0.8-0.6,1.3-1c0.4-0.4,0.9-0.9,1.4-1.4s1-1.1,1.4-1.7c1.2-1.5,2.1-2.8,2.7-3.9c2.9-5.4,4.5-8.2,4.7-8.5
			c0.4-0.6,0.9-0.9,1.4-0.9s0.9,0.1,1.2,0.2s0.6,0.2,0.9,0.4c0.5,0.4,0.7,0.8,0.5,1.3s-0.5,1.2-0.8,2c-2.6,7.5-4.3,12.1-5,14
			c-0.8,1.8-1.4,3.3-2,4.5s-1.2,2.3-2,3.4s-1.6,2.2-2.5,3.1c-2,2.1-3.8,3.3-5.6,3.4c-0.7,0.1-1.2,0-1.6-0.3c-0.7-0.4-1-0.8-1-1.2
			s0.3-0.6,0.9-0.8s1.3-0.4,1.9-0.9c0.7-0.4,1.3-0.9,1.9-1.5c1.8-1.7,3.2-3.6,4.2-5.6c0.8-1.8,1.5-3.4,2-5l1.6-4.8
			c-0.4,0.5-0.8,1-1.3,1.7l-1.5,2c-1.3,1.6-2.3,2.8-3.2,3.4c-1.6,1.3-3,1.9-4.3,1.9C168.9,45.6,167.8,44.8,167.2,43.4z"/>
	</g>
	<g>
		<g>
			<path class="st1" d="M18.5,12.7c0.9-1.6,2.2-2.6,4-2.5c1.6,0.1,2.9,0.9,3.8,2.4c2.8,1,4.5,3.2,5.4,6.1c-0.7-5.8-3.2-10-9.1-9.9
				c-4.5,0.1-7.1,2.6-8.4,6.5C15.2,14.2,16.7,13.3,18.5,12.7z"/>
			<path class="st1" d="M26.2,12.6c-0.9-1.5-2.1-2.3-3.8-2.4c-1.8-0.1-3.1,0.9-4,2.5c0.8-0.2,1.7-0.4,2.7-0.5
				C23.1,12,24.8,12.1,26.2,12.6z"/>
			<path class="st1" d="M27.4,52.2l0.3-0.1C32.2,42,37,27.9,32.2,21.3C34.2,33.1,27.4,52.2,27.4,52.2z"/>
			<path class="st1" d="M17.6,52.3c-0.1,0.2-0.9-2.5-2-6.1c-2-5-4.4-12.4-4.7-19c-1.3,10.3,6.3,25,6.3,25"/>
			<path class="st1" d="M32.2,21.3c-0.2-0.9-0.4-1.8-0.6-2.6c0.1,0.6,0.1,1.3,0.2,2C31.9,20.9,32.1,21.1,32.2,21.3z"/>
			<path class="st1" d="M13.2,20.7c0.1-2,0.4-3.8,1-5.4c-2.8,2.8-3.5,7.1-3.3,11.9c0.3-2,0.9-3.9,1.9-5.4
				C12.9,21.4,13,21.1,13.2,20.7z"/>
			<path class="st1" d="M26.2,12.6c0.9,1.4,1.4,3.3,1.8,5.6c1.6,0.5,2.8,1.4,3.8,2.5c0-0.7-0.1-1.3-0.2-2
				C30.7,15.8,29,13.6,26.2,12.6z"/>
			<path class="st1" d="M17.2,16.2c0.3-1.4,0.7-2.6,1.3-3.5c-1.8,0.5-3.2,1.4-4.3,2.5c-0.5,1.6-0.9,3.5-1,5.4
				C13.9,18.7,15.2,17.1,17.2,16.2z"/>
			<path class="st1" d="M22.1,15.7c0.1-0.7,0.2-1.1,0.4-1.1c0.2,0,0.3,0.4,0.4,1.2c1.4,0.3,2.5,1,3.4,2c0.6,0.1,1.2,0.3,1.7,0.4
				c-0.3-2.3-0.9-4.2-1.8-5.6c-1.4-0.5-3.1-0.7-5.1-0.4c-1,0.1-1.9,0.3-2.7,0.5c-0.5,1-1,2.1-1.3,3.5c0.9-0.4,1.9-0.6,3.1-0.7
				C20.9,15.5,21.5,15.6,22.1,15.7z"/>
			<path class="st1" d="M22.4,14.6c-0.2,0-0.3,0.4-0.4,1.1c0.3,0,0.5,0.1,0.8,0.2C22.7,15,22.6,14.6,22.4,14.6z"/>
			<path class="st1" d="M27.4,52.2c0,0,6.8-19.1,4.8-30.9c-0.1-0.2-0.3-0.4-0.5-0.6c0.3,6.9-1.5,15.5-3.3,22
				c-0.9,5.4-2.1,9.5-2.1,9.5"/>
			<path class="st1" d="M12.8,21.7c-1.1,1.5-1.7,3.4-1.9,5.4c0.4,6.6,2.8,14,4.7,19C13.5,39.4,10.9,28.6,12.8,21.7z"/>
			<path class="st1" d="M28.5,42.7c1.7-6.5,3.6-15.1,3.3-22c-0.9-1.1-2.2-1.9-3.8-2.5c0.1,0.9,0.2,1.9,0.3,2.9
				C30.5,26.9,29.7,35.9,28.5,42.7z"/>
			<path class="st1" d="M28.3,21.2c-0.1-1-0.2-2-0.3-2.9c-0.5-0.2-1.1-0.3-1.7-0.4C27.1,18.7,27.8,19.8,28.3,21.2z"/>
			<path class="st1" d="M18.2,52.2c0,0-1.2-2.4-2.6-6c1.1,3.6,1.9,6.2,1.9,6.2"/>
			<path class="st1" d="M13.2,20.7c-0.1,0.3-0.2,0.7-0.3,1c0.1-0.1,0.2-0.3,0.3-0.4C13.1,21.1,13.1,20.9,13.2,20.7z"/>
			<path class="st1" d="M16.8,18.6c0.1-0.8,0.2-1.6,0.4-2.4c-2,0.8-3.2,2.4-4,4.5c0,0.2,0,0.4,0,0.6C14,20.2,15.2,19.3,16.8,18.6z"
				/>
			<path class="st1" d="M22.9,15.8c0.1,0.5,0.1,1,0.2,1.7c0.2,0,0.4,0,0.7,0c0.9,0,1.8,0.1,2.6,0.3C25.3,16.8,24.2,16.2,22.9,15.8z"
				/>
			<path class="st1" d="M21.9,17.5c0-0.8,0.1-1.4,0.2-1.9c-0.6-0.1-1.1-0.1-1.8-0.1c-1.2,0.1-2.2,0.3-3.1,0.7
				c-0.2,0.7-0.3,1.5-0.4,2.4C18.2,18,19.9,17.6,21.9,17.5z"/>
			<path class="st1" d="M22.1,15.7c-0.1,0.5-0.1,1.1-0.2,1.9c0.4,0,0.7,0,1.1,0c0-0.7-0.1-1.2-0.2-1.7
				C22.6,15.8,22.3,15.7,22.1,15.7z"/>
			<path class="st1" d="M19.2,53c0,0-6.7-18.8-6.1-31.6c-0.1,0.1-0.2,0.3-0.3,0.4c-1.9,6.8,0.7,17.7,2.8,24.4
				c1.4,3.6,2.8,6.6,2.8,6.6"/>
			<path class="st1" d="M26.3,52.8c0,0,1.3-4.7,2.2-10.1c-1.5,5.5-2.9,9.5-2.9,9.5"/>
			<path class="st1" d="M19.6,52.2c0,0-4.4-21.3-2.8-33.6c-1.5,0.7-2.7,1.6-3.6,2.7c-0.7,12.8,5.7,30.9,5.7,30.9"/>
			<path class="st1" d="M25.3,53.1c0,0,1.8-4.9,3.3-10.4c1.2-6.8,2-15.8-0.2-21.5c0.9,12.4-3.1,31-3.1,31"/>
			<path class="st1" d="M25,53.1c0,0,4.1-19.6,3.3-32c-0.5-1.3-1.2-2.5-2.1-3.4c-0.8-0.1-1.6-0.2-2.6-0.3c-0.2,0-0.4,0-0.7,0l0,0
				c0.2,0,0.4,0,0.7,0c8,1.1,0.6,34.6,0.6,34.6"/>
			<path class="st1" d="M21.8,52.2c0,0-5-29.5,0.1-34.1c0-0.2,0-0.4,0-0.6c-2,0.1-3.7,0.5-5.1,1.1c-1.6,12.2,3,34.5,3,34.5"/>
			<path class="st1" d="M21.9,17.5c0,0.2,0,0.4,0,0.6c0.3-0.3,0.7-0.5,1.2-0.6l0,0C22.6,17.5,22.3,17.5,21.9,17.5z"/>
			<path class="st1" d="M22.5,53.5c0,0-1.1-26-0.6-35.4C16.8,22.7,22,53.4,22,53.4"/>
			<path class="st1" d="M24.1,53.3c0,0,7.6-34.7-0.4-35.8c-0.2,0-0.5,0-0.7,0c0.6,8.8,0,34.6,0,34.6"/>
			<path class="st1" d="M23,53.4c0,0,0.7-27,0.1-35.9c-0.4,0.1-0.8,0.3-1.2,0.6c-0.5,9.3,0.6,35.3,0.6,35.3"/>
		</g>
		<path class="st2" d="M17.2,52.1c0.9,0.5,2.8,1.4,5.5,1.3c2.5-0.1,4.3-0.8,5.2-1.3"/>
	</g>
</g>
</svg>
